PathFileType	4	(X/Y/Z)	c:/Users/goper/Files/vsCode/490R/osim_files/C08/C08_Fast_03.trc
DataRate	CameraRate	NumFrames	NumMarkers	Units                	OrigDataRate	OrigDataStartFrame	OrigNumFrames
250.00	250.00	9	36	mm	250.0	1741	2321
                Frame#	Time	LPSIS			LASIS			LTH1			LTH2			LTH3			LTH4			LLFE			LMFE			LSH1			LSH2			LSH3			LSH4			LLMAL			LMMAL			LCAL			LMTP5			LTOE			LMTP1			RPSIS			RASIS			RTH1			RTH2			RTH3			RTH4			RLFE			RMFE			RSH1			RSH2			RSH3			RSH4			RLMAL			RMMAL			RCAL			RMTP1			RTOE			RMTP5		
		X1	Y1	Z1	X2	Y2	Z2	X3	Y3	Z3	X4	Y4	Z4	X5	Y5	Z5	X6	Y6	Z6	X7	Y7	Z7	X8	Y8	Z8	X9	Y9	Z9	X10	Y10	Z10	X11	Y11	Z11	X12	Y12	Z12	X13	Y13	Z13	X14	Y14	Z14	X15	Y15	Z15	X16	Y16	Z16	X17	Y17	Z17	X18	Y18	Z18	X19	Y19	Z19	X20	Y20	Z20	X21	Y21	Z21	X22	Y22	Z22	X23	Y23	Z23	X24	Y24	Z24	X25	Y25	Z25	X26	Y26	Z26	X27	Y27	Z27	X28	Y28	Z28	X29	Y29	Z29	X30	Y30	Z30	X31	Y31	Z31	X32	Y32	Z32	X33	Y33	Z33	X34	Y34	Z34	X35	Y35	Z35	X36	Y36	Z36

1741	6.96000	-2698.46851	1048.70935	210.01514	-2909.78369	1008.17920	276.68518	-2916.07349	744.14618	355.86395	-2951.24097	674.29492	343.56738	-2976.41357	605.27917	330.86505	-3019.37036	710.88177	321.04593	-2997.11938	562.11969	325.26987	-3008.68433	552.15027	197.06281	-2953.30542	438.57834	338.59781	-2963.40479	392.68060	342.12845	-3011.27417	443.01065	340.60477	-3013.00293	398.42673	343.51447	-2998.08887	114.73981	297.24423	-3032.28687	124.66733	213.47607	-2945.33740	85.01214	234.16449	-3112.03857	64.93587	340.05206	-3172.54224	94.76299	290.08746	-3152.15283	68.20860	236.09692	-2691.51343	1050.43225	150.18242	-2879.58569	1010.40564	39.21730	-2783.52954	751.16138	-4.01123	-2772.44751	675.07892	16.37938	-2756.87793	597.74725	31.25832	-2845.81299	670.00549	43.09101	-2750.18921	526.40314	47.49984	0.00000	0.00000	0.00000	-2683.19775	451.97263	33.40015	-2680.12671	407.21378	29.31015	-2740.87720	442.45236	43.13483	-2733.76904	398.96649	38.23647	-2631.81274	109.57453	99.49390	-2661.93262	113.15212	185.46579	-2569.12012	90.31767	168.35066	-2783.31372	44.89029	171.91579	-2801.25391	60.65692	119.42804	-2747.80737	45.16430	59.75045
1742	6.96400	-2703.47754	1047.90662	210.36014	-2915.05786	1007.12573	276.80682	-2920.09351	742.62701	355.45056	-2955.28516	672.91852	343.21512	-2980.71143	604.25061	330.50397	-3023.80713	709.76093	320.24835	-2996.62061	558.63385	323.66107	-3012.82544	550.85602	196.61740	-2960.46631	436.30511	338.51477	-2971.82544	390.63748	342.07617	-3018.40967	442.16702	339.60614	-3020.92822	397.58597	343.23438	-3014.47168	112.88635	295.35577	-3046.03857	124.30163	213.87967	-2960.16504	82.75565	233.98085	-3128.74512	66.65928	339.33096	-3187.76147	97.79597	289.24411	-3168.42603	71.08001	235.18684	-2696.54199	1049.64124	150.55605	-2884.22339	1009.68256	38.98395	-2787.16016	750.92975	-4.04418	-2775.71851	674.89740	16.36286	-2760.39258	597.72107	31.07067	-2849.14429	669.53784	42.95838	-2752.67285	526.33789	47.44147	0.00000	0.00000	0.00000	-2684.01221	451.86002	34.23954	-2682.00244	407.52704	29.38087	-2743.23755	442.55008	42.95034	-2735.40186	398.98685	38.17811	-2631.95947	110.27887	99.84274	-2662.37231	113.49885	185.46019	-2569.43115	90.94092	168.38086	-2783.39478	44.86072	171.85208	-2801.39917	60.47261	119.32881	-2747.80396	45.09183	59.68665
1743	6.96800	-2708.56934	1047.09094	210.70633	-2920.41479	1006.15948	276.91473	-2924.28857	741.43219	355.01083	-2959.23633	671.52667	342.95667	-2984.06958	602.25226	330.62256	-3027.47070	707.65387	319.96674	-3005.48706	559.21582	324.66696	-3016.97412	549.53595	196.18944	-2967.60327	434.04184	338.42343	0.00000	0.00000	0.00000	-3025.06689	441.32620	339.99844	-3028.75732	396.74524	342.87912	-3026.38525	113.12453	294.97055	-3060.48096	124.22927	213.51540	-2976.53613	80.18089	233.99110	-3145.17358	68.63033	338.40552	-3205.14185	101.94899	287.82538	-3184.40552	74.24559	234.08109	-2702.38647	1048.79297	151.16769	-2889.28760	1009.27399	38.95977	-2790.85278	750.72662	-4.10913	-2779.15015	674.77911	16.31873	-2763.53467	597.69305	31.07788	-2852.55396	669.06201	42.83858	-2755.30713	526.36646	47.35064	0.00000	0.00000	0.00000	-2687.38867	452.68665	33.57756	-2683.84741	407.85449	29.42754	-2745.67529	442.55173	42.69344	-2737.23560	399.07388	38.06355	-2631.04932	108.68150	101.55200	-2662.76367	113.88284	185.45006	-2569.71533	91.62257	168.43289	-2783.48291	44.80882	171.77641	-2801.51562	60.29630	119.24599	-2747.86133	45.02821	59.61729
1744	6.97200	-2710.72974	1047.02722	210.87556	-2925.78809	1005.21484	276.99890	-2928.21265	740.01410	354.70538	-2963.09546	670.10052	342.77612	-2987.58081	600.64355	330.61295	-3031.35669	705.84607	319.54630	-3009.51538	557.69586	324.47443	-3020.91968	548.08704	195.79373	-2974.62939	431.77951	338.43112	0.00000	0.00000	0.00000	-3029.93066	440.84686	339.05417	-3036.48608	395.91635	342.53607	-3040.72510	112.31380	294.46417	-3074.68726	124.29830	212.97093	-2991.75366	78.25584	233.79811	-3161.28052	70.76485	337.39612	-3220.20898	105.63339	286.59894	-3199.97046	77.55114	232.86020	-2706.60986	1048.12280	151.40637	-2893.70386	1008.30786	38.56757	-2794.63208	750.46436	-4.18951	-2782.84521	674.95514	16.31641	-2766.68140	597.61584	31.00714	-2856.01440	668.55103	42.71896	-2758.00269	526.32025	47.29697	0.00000	0.00000	0.00000	-2688.37354	452.56216	34.40353	-2685.77539	408.19641	29.49557	-2748.20386	442.65314	42.42276	-2739.03271	399.08707	37.98728	-2631.44482	109.16016	101.54247	-2662.64282	114.34852	185.64546	-2569.63013	92.44168	168.42778	-2783.57788	44.73692	171.73604	-2801.67383	60.07956	119.19559	-2747.88257	44.93978	59.56993
1745	6.97600	-2716.09082	1046.10876	211.23688	-2931.23145	1004.31744	277.06024	-2932.17212	738.62323	354.55502	-2966.86938	668.62524	342.72952	-2991.14819	599.04272	330.84732	-3035.21240	704.01569	319.19553	-3013.46021	556.19220	324.32941	-3024.91895	546.67896	195.45238	-2981.59961	429.56982	338.58029	0.00000	0.00000	0.00000	-3038.26294	439.82635	340.22107	-3044.12109	395.14606	342.10086	-3055.31860	111.74448	293.90326	-3088.60596	124.62993	212.37808	-3006.80225	76.40896	233.50977	-3177.16724	72.73696	336.43484	-3234.84106	109.45206	285.22449	-3215.19897	81.17793	231.43533	-2711.54443	1047.32593	151.79089	-2898.54834	1007.59686	38.33337	-2798.54102	750.21643	-4.27228	-2786.23755	674.40417	16.24031	-2769.86865	597.45319	31.03171	-2859.63013	668.05029	42.58356	-2760.75903	526.23633	47.24013	0.00000	0.00000	0.00000	-2691.89746	453.35553	33.74134	-2687.83374	408.55017	29.52712	-2752.90747	442.55722	40.15297	-2741.04688	399.16412	37.85258	-2632.58862	112.26530	98.44212	-2663.65869	114.64379	185.47633	-2570.38599	93.04472	168.48874	-2783.67236	44.66164	171.68646	-2801.81836	59.88222	119.14764	-2747.94849	44.89091	59.49181
1746	6.98000	-2721.35303	1045.22559	211.57214	-2936.67676	1003.46075	277.06577	-2936.13452	737.26385	354.48969	-2970.55933	667.21490	342.82526	-2994.42505	597.37885	331.12000	-3039.01807	702.12701	318.89139	-3017.38501	554.70959	324.25098	-3028.96777	545.27423	195.13055	-2988.52515	427.47653	338.79904	0.00000	0.00000	0.00000	-3043.18555	439.02869	339.18991	-3051.62891	394.40387	341.66391	-3070.23145	111.37665	293.24991	-3102.16064	125.10310	211.68797	-3020.80640	75.04497	232.98814	-3192.63257	75.51185	334.92389	-3249.06860	113.41134	283.75269	-3230.07764	85.05870	229.85172	-2716.59204	1046.53491	152.19756	-2903.33032	1006.88855	38.05581	-2802.46851	749.92621	-4.31201	-2789.88745	674.19196	16.16914	-2772.44800	597.24377	31.23967	-2863.27441	667.51508	42.41177	-2763.69409	526.18921	47.17940	0.00000	0.00000	0.00000	-2693.09399	453.22583	34.55212	-2689.92505	408.79550	29.59349	-2755.79346	442.82028	40.07127	-2743.93921	399.17166	37.93063	-2633.04492	112.82574	98.40762	-2664.17090	115.03340	185.45146	-2570.83472	93.81915	168.49290	-2783.79590	44.59111	171.64931	-2801.98145	59.64141	119.10834	-2747.26660	44.94995	59.41289
1747	6.98400	-2726.52905	1044.37988	211.90852	-2942.23315	1002.65472	277.09177	-2940.11255	735.98090	354.59348	-2974.22144	665.77557	342.95297	-2998.02148	596.13196	331.41513	-3042.83325	700.25690	318.70007	-3016.33447	551.31226	322.85495	-3032.93970	543.93195	194.88779	-2995.41943	425.42914	339.09064	0.00000	0.00000	0.00000	-3049.26050	438.19901	339.52515	-3059.01123	393.68320	341.19772	-3084.30444	111.13498	292.50745	-3115.35645	125.76654	210.86172	-3035.29468	73.68502	232.38985	-3207.62622	78.06905	333.48215	-3262.85620	117.54393	282.13852	-3244.45752	89.05280	228.14975	-2721.58765	1045.77429	152.56474	-2908.29614	1006.41705	37.98375	-2806.52026	749.63965	-4.43695	-2793.59619	673.96429	16.13989	-2775.85986	597.08624	31.18625	-2866.99731	666.98328	42.26588	-2766.64087	526.06812	47.12548	0.00000	0.00000	0.00000	-2696.74219	453.99371	33.90379	-2692.17432	409.18469	29.65623	-2758.82031	443.08783	40.00594	-2745.23901	399.20956	37.72319	-2634.07788	112.91168	99.81757	-2664.72803	115.41673	185.39581	-2571.14966	94.66100	168.50237	-2783.95630	44.53431	171.59631	-2802.21533	59.43773	119.10102	-2748.09619	44.77580	59.36996
1748	6.98800	-2731.79395	1043.51672	212.28914	-2947.75366	1001.91229	277.05725	-2944.01733	734.73462	354.78229	-2977.91064	664.44360	343.18655	-3000.94873	594.17267	331.01163	-3046.62915	698.50092	318.56400	-3024.89453	551.97247	324.35205	-3036.71118	542.47754	194.65176	-3002.14453	423.44278	339.27841	0.00000	0.00000	0.00000	-3055.59302	437.13440	339.42914	-3066.26831	393.01712	340.70895	-3097.26270	111.04458	291.54764	-3128.18970	126.59554	209.97406	-3049.55713	72.51118	231.71831	-3223.10571	80.66197	332.72751	-3276.13354	121.79534	280.44553	-3257.84741	91.25395	227.03412	-2726.71948	1044.95972	153.06096	-2913.18799	1005.72217	37.77258	-2810.56445	749.33301	-4.46280	-2797.38745	673.70844	16.09065	-2780.17700	596.99268	30.91010	-2870.80957	666.42572	42.08996	-2769.64087	525.91864	47.06319	0.00000	0.00000	0.00000	-2698.10522	453.82471	34.67860	-2694.44604	409.47421	29.73104	-2761.87476	443.29996	39.90839	-2747.43018	399.15167	37.68055	-2634.58691	113.65089	99.72550	-2665.24390	115.90027	185.38054	-2571.54077	95.51200	168.47539	-2784.04468	44.42777	171.58247	-2802.53052	59.22595	119.59991	-2747.37988	44.82266	59.29360
1749	6.99200	-2737.09717	1042.69714	212.63608	-2953.31079	1001.21698	277.04794	-2948.13257	733.55444	355.10568	-2981.66455	663.21326	343.54321	-3004.30957	592.76599	331.36731	-3050.43774	696.75470	318.52969	-3023.62524	548.63354	322.96631	-3040.48462	541.14532	194.42241	-3008.91235	421.61127	339.59082	0.00000	0.00000	0.00000	-3061.87524	436.39203	339.10175	-3073.31494	392.38071	340.22891	-3111.22852	111.07919	290.68417	-3140.51489	127.59116	209.08295	-3063.22217	71.48850	231.05658	-3236.39941	83.29066	330.32800	-3288.92114	126.13261	278.67099	-3271.05688	95.43677	225.19781	-2731.84082	1044.25281	153.49002	-2918.13501	1004.88141	37.45846	-2814.70703	749.03943	-4.51289	-2801.52466	673.84027	16.10097	-2783.64551	596.81122	30.81903	-2874.72437	665.88330	41.88379	-2772.85132	525.82916	47.03436	0.00000	0.00000	0.00000	-2701.98926	454.60172	34.03421	-2696.89844	409.75967	29.76061	-2765.00757	443.50995	39.89524	-2750.69946	399.16876	37.71955	-2635.08081	114.20998	99.68295	-2665.76587	116.36200	185.33003	-2571.93457	96.41104	168.44482	-2784.14526	44.35677	171.57925	-2802.85059	59.16264	119.25343	-2747.44141	44.77392	59.22435
